<?xml version="1.0" encoding="UTF-8"?>
<svg width="300px" height="63px" viewBox="0 0 300 63" version="1.1" xmlns="http://www.w3.org/2000/svg" xmlns:xlink="http://www.w3.org/1999/xlink">
    <defs>
        <path d="M268.582403,0.00584415584 C285.992143,0.00584415584 299.953831,13.9266234 299.947989,31.2798701 C299.942143,48.4480519 285.886948,62.3376623 268.527857,62.3298734 C251.236948,62.324026 237.236299,48.3642857 237.240194,31.1396104 C237.244091,13.9324675 251.264221,0.00584415584 268.582403,0.00584415584 L268.582403,0.00584415584 Z M20.5096753,0.0194805195 C26.3246104,0.0545454545 31.9505844,1.0538961 37.1908442,3.69155844 C46.0447403,8.1487013 51.0453896,15.4402597 52.6252597,25.1142857 C53.6577273,31.425974 53.2330519,37.6636364 50.872013,43.6519481 C47.2973377,52.7162338 40.4947403,58.1805195 31.2492857,60.7909091 C27.7700649,61.7727273 24.2051299,62.1935065 20.5895455,62.1954545 L0.703831169,62.1935065 C0.483701299,62.1935065 0.263571429,62.1720779 0.000584415584,62.1584416 L0.000584415584,0.00974025974 L0.879155844,0.00974025974 C7.42266234,0.00974025974 13.9661688,-0.0194805195 20.5096753,0.0194805195 L20.5096753,0.0194805195 Z M65.6947403,62.1350649 L78.547987,62.1350649 L78.547987,0.0584415584 L65.6947403,0.0584415584 L65.6947403,62.1350649 Z M200.100584,0.0467532468 L200.100584,24.487013 L224.92461,24.487013 L224.92461,37.4415584 L200.129805,37.4415584 L200.129805,62.1 L187.146039,62.1 L187.146039,37.4571429 L162.349286,37.4571429 L162.349286,24.5532468 L187.099286,24.5532468 L187.099286,0.0467532468 L200.100584,0.0467532468 Z M128.583701,0.0584415584 L128.583701,24.5181818 L153.390195,24.5181818 L153.390195,37.424026 L128.599286,37.424026 L128.599286,62.0922078 L115.582403,62.0922078 L115.582403,37.425974 L90.773961,37.425974 L90.773961,24.5415584 L115.551234,24.5415584 L115.551234,0.0584415584 L128.583701,0.0584415584 Z M268.623312,12.5551863 C258.263571,12.5454545 249.853831,20.9006494 249.873278,31.1863636 C249.888896,41.4876623 258.300584,49.8058442 268.662273,49.7786383 C278.979156,49.7493506 287.347987,41.3961039 287.330482,31.1454545 C287.31487,20.8850649 278.944091,12.5649351 268.623312,12.5551863 L268.623312,12.5551863 Z M13.1596753,12.9662338 C13.1168182,12.9662338 13.073961,13.0305195 12.9940909,13.0928571 L12.9940909,49.2701299 C14.9518831,49.2701299 16.8414935,49.2506494 18.7330519,49.274026 C21.4272078,49.3090909 24.1096753,49.2038961 26.7453896,48.5785714 C31.5512338,47.437013 35.4921429,45.0720779 37.9213636,40.612987 C39.8401948,37.088961 40.2629221,33.2688312 40.0447403,29.3435065 C39.5908442,21.2707792 34.9486364,15.6915584 27.1018831,13.7376623 C22.5025325,12.5902597 17.8194156,12.9779221 13.1596753,12.9662338 L13.1596753,12.9662338 Z" id="path-1"></path>
    </defs>
    <g id="Page-1" stroke="none" stroke-width="1" fill="none" fill-rule="evenodd">
        <g id="Desktop-Signup-1920" transform="translate(-230.000000, -470.000000)" fill="#FFFFFF">
            <g id="Logo" transform="translate(230.000000, 470.000000)">
                <g fill="none">
                    <mask id="mask-2" fill="white">
                        <use xlink:href="#path-1"></use>
                    </mask>
                    <use id="Fill-1" fill="#111111" xlink:href="#path-1"></use>
                </g>
            </g>
        </g>
    </g>
</svg>
